<svg xmlns="http://www.w3.org/2000/svg" width="45.999" height="46" viewBox="0 0 45.999 46">
  <g id="meios-pagamento" transform="translate(-1.533 -1.532)">
    <path id="Caminho_462" data-name="Caminho 462" d="M42.932,10.733H38.486L29.731,1.978a1.533,1.533,0,0,0-2.162,0L24.5,5.045,21.435,1.978a1.533,1.533,0,0,0-2.162,0L10.58,10.733H6.133a4.6,4.6,0,0,0-4.6,4.6v27.6a4.6,4.6,0,0,0,4.6,4.6h36.8a4.6,4.6,0,0,0,4.6-4.6v-27.6a4.6,4.6,0,0,0-4.6-4.6Zm-14.275-5.5,5.489,5.5H30.252L26.695,7.191Zm-8.249,0,5.5,5.5H14.919ZM42.932,44.465H6.133A1.533,1.533,0,0,1,4.6,42.932v-27.6A1.533,1.533,0,0,1,6.133,13.8h36.8a1.533,1.533,0,0,1,1.533,1.533V23H41.4a6.133,6.133,0,0,0,0,12.266h3.067v7.666A1.533,1.533,0,0,1,42.932,44.465Zm1.533-18.4V32.2H41.4a3.067,3.067,0,0,1,0-6.133Z" fill="#fb882a"/>
    <path id="Caminho_463" data-name="Caminho 463" d="M15.333,38.332H9.2a1.533,1.533,0,0,0,0,3.067h6.133a1.533,1.533,0,0,0,0-3.067Z" fill="#fb882a"/>
  </g>
</svg>
