<svg xmlns="http://www.w3.org/2000/svg" width="46" height="41.664" viewBox="0 0 46 41.664">
  <g id="parcelas" transform="translate(0 -2.168)">
    <path id="Caminho_450" data-name="Caminho 450" d="M45.923,26.066l-3.492-19.8a4.961,4.961,0,0,0-5.74-4.019L6.743,7.525a4.96,4.96,0,0,0-4.019,5.74l.257,1.455A4.962,4.962,0,0,0,0,19.263V38.877a4.96,4.96,0,0,0,4.955,4.955H34.684a4.96,4.96,0,0,0,4.955-4.955V32.205l2.265-.4a4.955,4.955,0,0,0,4.019-5.74Zm-3.035,2.152a2.238,2.238,0,0,1-1.454.926l-1.8.317v-10.2a4.96,4.96,0,0,0-4.955-4.955H5.653L5.386,12.8a2.252,2.252,0,0,1,1.827-2.609L37.161,4.905A2.251,2.251,0,0,1,39.77,6.732l3.492,19.8A2.238,2.238,0,0,1,42.889,28.218Zm-8.2,12.911H4.955A2.255,2.255,0,0,1,2.7,38.877V29.272H36.936v9.605a2.255,2.255,0,0,1-2.252,2.252ZM4.955,17.011H34.684a2.255,2.255,0,0,1,2.252,2.252v1.176H2.7V19.263A2.255,2.255,0,0,1,4.955,17.011Zm31.981,6.131v3.428H2.7V23.142Z" fill="#fb882a"/>
    <path id="Caminho_451" data-name="Caminho 451" d="M13,35.7H6.874a1.351,1.351,0,1,0,0,2.7H13a1.351,1.351,0,0,0,0-2.7Z" fill="#fb882a"/>
  </g>
</svg>
