<svg xmlns="http://www.w3.org/2000/svg" width="46" height="40.249" viewBox="0 0 46 40.249">
  <g id="pagamento-seguro" transform="translate(0 -2.875)">
    <g id="Grupo_220" data-name="Grupo 220">
      <g id="Grupo_219" data-name="Grupo 219">
        <path id="Caminho_446" data-name="Caminho 446" d="M44.563,28.75a1.438,1.438,0,0,0-1.437,1.438V40.25H2.875V23H18.688a1.438,1.438,0,0,0,0-2.875H2.875v-5.75H18.688a1.438,1.438,0,0,0,0-2.875H2.875A2.876,2.876,0,0,0,0,14.375V40.25a2.876,2.876,0,0,0,2.875,2.875h40.25A2.876,2.876,0,0,0,46,40.25V30.187A1.438,1.438,0,0,0,44.563,28.75Z" fill="#fb882a"/>
      </g>
    </g>
    <g id="Grupo_222" data-name="Grupo 222">
      <g id="Grupo_221" data-name="Grupo 221">
        <path id="Caminho_447" data-name="Caminho 447" d="M12.938,28.75H7.188a1.438,1.438,0,0,0,0,2.875h5.75a1.438,1.438,0,0,0,0-2.875Z" fill="#fb882a"/>
      </g>
    </g>
    <g id="Grupo_224" data-name="Grupo 224">
      <g id="Grupo_223" data-name="Grupo 223">
        <path id="Caminho_448" data-name="Caminho 448" d="M45.129,7.3,35.066,2.99a1.468,1.468,0,0,0-1.136,0L23.868,7.3A1.441,1.441,0,0,0,23,8.625v5.75c0,7.909,2.924,12.532,10.784,17.06a1.445,1.445,0,0,0,1.432,0C43.076,26.918,46,22.3,46,14.375V8.625A1.439,1.439,0,0,0,45.129,7.3Zm-2,7.072c0,6.638-2.2,10.293-8.625,14.145C28.071,24.659,25.875,21,25.875,14.375v-4.8l8.625-3.7,8.625,3.7Z" fill="#fb882a"/>
      </g>
    </g>
    <g id="Grupo_226" data-name="Grupo 226">
      <g id="Grupo_225" data-name="Grupo 225">
        <path id="Caminho_449" data-name="Caminho 449" d="M39.712,11.813a1.447,1.447,0,0,0-2.021.224l-4.52,5.652-1.788-2.674a1.437,1.437,0,0,0-2.392,1.593l2.875,4.313A1.449,1.449,0,0,0,33,21.562h.06a1.438,1.438,0,0,0,1.124-.541l5.75-7.188A1.439,1.439,0,0,0,39.712,11.813Z" fill="#fb882a"/>
      </g>
    </g>
  </g>
</svg>
